<?xml version="1.0" encoding="UTF-8"?>
<svg width="760px" height="600px" viewBox="0 0 760 600" version="1.1" xmlns="http://www.w3.org/2000/svg" xmlns:xlink="http://www.w3.org/1999/xlink">
    <!-- Generator: Sketch 58 (84663) - https://sketch.com -->
    <title>assignment-illustration</title>
    <desc>Created with Sketch.</desc>
    <defs>
        <rect id="path-1" x="0" y="0" width="430.87649" height="85.07049" rx="4"></rect>
        <filter x="-2.8%" y="-14.1%" width="105.6%" height="128.2%" filterUnits="objectBoundingBox" id="filter-2">
            <feOffset dx="0" dy="0" in="SourceAlpha" result="shadowOffsetOuter1"></feOffset>
            <feGaussianBlur stdDeviation="4" in="shadowOffsetOuter1" result="shadowBlurOuter1"></feGaussianBlur>
            <feColorMatrix values="0 0 0 0 0   0 0 0 0 0   0 0 0 0 0  0 0 0 0.5 0" type="matrix" in="shadowBlurOuter1"></feColorMatrix>
        </filter>
        <rect id="path-3" x="0" y="99.43303" width="430.87649" height="85.07049" rx="4"></rect>
        <filter x="-2.8%" y="-14.1%" width="105.6%" height="128.2%" filterUnits="objectBoundingBox" id="filter-4">
            <feOffset dx="0" dy="0" in="SourceAlpha" result="shadowOffsetOuter1"></feOffset>
            <feGaussianBlur stdDeviation="4" in="shadowOffsetOuter1" result="shadowBlurOuter1"></feGaussianBlur>
            <feColorMatrix values="0 0 0 0 0.8   0 0 0 0 0.8   0 0 0 0 0.8  0 0 0 1 0" type="matrix" in="shadowBlurOuter1"></feColorMatrix>
        </filter>
        <rect id="path-5" x="0" y="197.11137" width="430.87649" height="85.07049" rx="4"></rect>
        <filter x="-2.8%" y="-14.1%" width="105.6%" height="128.2%" filterUnits="objectBoundingBox" id="filter-6">
            <feOffset dx="0" dy="0" in="SourceAlpha" result="shadowOffsetOuter1"></feOffset>
            <feGaussianBlur stdDeviation="4" in="shadowOffsetOuter1" result="shadowBlurOuter1"></feGaussianBlur>
            <feColorMatrix values="0 0 0 0 0.798771513   0 0 0 0 0.798771513   0 0 0 0 0.798771513  0 0 0 0.5 0" type="matrix" in="shadowBlurOuter1"></feColorMatrix>
        </filter>
    </defs>
    <g id="assignment-illustration.svg" stroke="none" stroke-width="1" fill="none" fill-rule="evenodd">
        <g id="assignment-illustration" transform="translate(8.000000, 0.000000)" fill-rule="nonzero">
            <path d="M451.70665,599.99955 L451.70616,597.99955 C455.68273,597.99855 459.71935,597.91655 463.70516,597.75736 L463.78523,599.75541 C459.77306,599.91655 455.70958,599.99855 451.70665,599.99955 Z M439.63146,599.7681 C435.63346,599.61185 431.57677,599.3726 427.57482,599.05717 L427.73204,597.06303 C431.70812,597.37748 435.7379,597.61478 439.70958,597.77003 L439.63146,599.7681 Z M475.84191,599.0308 L475.68273,597.03666 C479.65148,596.71928 483.66808,596.31596 487.62023,595.83842 L487.86046,597.82475 C483.88146,598.30517 479.838,598.71045 475.84191,599.03076 L475.84191,599.0308 Z M415.5548,597.8648 C411.567,597.38727 407.54259,596.8238 403.59239,596.19 L403.90978,594.21539 C407.83312,594.84527 411.83116,595.40484 415.7921,595.87848 L415.5548,597.8648 Z M499.81993,596.13629 L499.5006,594.16168 C503.42296,593.52789 507.39415,592.8023 511.30382,592.00738 L511.70226,593.96638 C507.76671,594.76806 503.76866,595.49755 499.81993,596.13623 L499.81993,596.13629 Z M391.70763,594.03375 C387.77163,593.23687 383.80577,592.34918 379.91905,591.39801 L380.39464,589.45465 C384.25548,590.40094 388.19493,591.2818 392.10411,592.07281 L391.70763,594.03375 Z M523.48839,591.31695 L523.00987,589.37555 C526.88243,588.42242 530.78187,587.37848 534.60021,586.27203 L535.15685,588.19391 C531.31212,589.30713 527.38632,590.35791 523.48839,591.31689 L523.48839,591.31695 Z M368.24669,588.28668 C364.39025,587.1734 360.5089,585.96832 356.71056,584.70468 L357.34239,582.80624 C361.11534,584.0621 364.97081,585.25937 368.80139,586.36483 L368.24669,588.28668 Z M546.6881,584.59723 L546.05431,582.70074 C549.8297,581.43902 553.63146,580.08258 557.35509,578.66754 L558.06603,580.53668 C554.317,581.96142 550.48888,583.32764 546.6881,584.59717 L546.6881,584.59723 Z M345.29796,580.64508 C341.54596,579.2232 337.76671,577.70367 334.06456,576.12652 L334.84825,574.28668 C338.5255,575.85309 342.27989,577.36285 346.00694,578.77398 L345.29796,580.64508 Z M569.2379,576.03277 L568.45275,574.19293 C572.109,572.63141 575.77989,570.97613 579.3629,569.27203 L580.22228,571.07867 C576.61485,572.79346 572.91857,574.46045 569.2379,576.03277 L569.2379,576.03277 Z M323.02599,571.15777 C319.39317,569.43316 315.75108,567.61285 312.20128,565.74664 L313.13194,563.97711 C316.65782,565.82965 320.27501,567.63824 323.88341,569.35111 L323.02599,571.15777 Z M591.00255,565.68316 L590.07091,563.91363 C593.59337,562.06012 597.12169,560.11187 600.55724,558.12457 L601.55919,559.85504 C598.10021,561.85596 594.54845,563.81689 591.00255,565.68316 L591.00255,565.68316 Z M301.60755,559.90387 C298.1222,557.88922 294.64124,555.7818 291.26087,553.6402 L292.33118,551.95074 C295.6886,554.07774 299.14661,556.17145 302.60853,558.1734 L301.60755,559.90387 Z M611.87655,553.60504 L610.80624,551.91559 C614.15878,549.79159 617.52108,547.56598 620.7994,545.29937 L621.93612,546.94391 C618.63632,549.22607 615.25157,551.46728 611.87657,553.60504 L611.87655,553.60504 Z M281.17732,546.96728 C277.8702,544.68213 274.57132,542.30322 271.37215,539.89599 L272.5743,538.29834 C275.75252,540.68896 279.02938,543.05224 282.31404,545.32275 L281.17732,546.96728 Z M631.7242,539.8833 L630.52107,538.28562 C633.69197,535.90086 636.86678,533.41162 639.9576,530.88621 L641.22322,532.43504 C638.11192,534.97705 634.91564,537.48291 631.72423,539.8833 L631.7242,539.8833 Z M261.86043,532.43699 C258.75543,529.89988 255.65926,527.26512 252.65779,524.60499 L253.98397,523.1089 C256.9659,525.7505 260.04158,528.36866 263.12605,530.88819 L261.86043,532.43699 Z M650.41854,524.60986 L649.09236,523.11375 C652.07186,520.47312 655.03865,517.73582 657.90975,514.97898 L659.29451,516.42234 C656.40489,519.19678 653.41857,521.95166 650.41857,524.60986 L650.41854,524.60986 Z M243.77745,516.41355 C240.89269,513.64207 238.01817,510.76902 235.23445,507.87449 L236.67586,506.48777 C239.44148,509.36377 242.29695,512.21824 245.16316,514.97019 L243.77745,516.41355 Z M667.83845,507.88232 L666.39704,506.49558 C669.15388,503.6284 671.89313,500.66258 674.53962,497.67918 L676.03571,499.0073 C673.37169,502.00928 670.61388,504.9956 667.83849,507.88232 L667.83845,507.88232 Z M227.04108,499.0034 C224.37458,495.99754 221.7403,492.90476 219.21052,489.81101 L220.75935,488.54539 C223.27155,491.61863 225.88874,494.6909 228.53718,497.67527 L227.04108,499.0034 Z M683.87263,489.80908 L682.3238,488.54344 C684.85114,485.45359 687.34528,482.27586 689.73786,479.0991 L691.33552,480.30222 C688.92732,483.50049 686.41564,486.69873 683.87267,489.80908 L683.87263,489.80908 Z M211.75642,480.31687 C209.34626,477.11668 206.96882,473.82566 204.6905,470.53367 L206.33503,469.395 C208.59821,472.66551 210.95954,475.935 213.35403,479.11375 L211.75642,480.31687 Z M698.41267,470.50049 L696.76813,469.36375 C699.03962,466.07859 701.27204,462.70945 703.40192,459.35008 L705.09138,460.42039 C702.94689,463.80224 700.69982,467.19385 698.41271,470.50049 L698.41267,470.50049 Z M198.02403,460.47705 C195.88097,457.09814 193.77648,453.62842 191.76866,450.16357 L193.49913,449.16162 C195.49327,452.60303 197.58413,456.04931 199.71251,459.40576 L198.02403,460.47705 Z M711.36192,450.07764 L709.63146,449.07564 C711.63346,445.61564 713.58751,442.07564 715.44005,438.55513 L717.20958,439.48677 C715.34532,443.03076 713.37755,446.59424 711.36192,450.07764 Z M185.93566,439.60791 C184.07237,436.06982 182.25499,432.44385 180.53429,428.83056 L182.33995,427.97119 C184.04942,431.56006 185.8546,435.16162 187.70519,438.67627 L185.93566,439.60791 Z M722.62657,428.66555 L720.81993,427.80617 C722.53185,424.20461 724.19493,420.51711 725.76134,416.84523 L727.60118,417.63039 C726.02403,421.32666 724.35021,425.03955 722.62657,428.66555 Z M175.57384,417.8501 C173.99864,414.1665 172.48107,410.40869 171.06261,406.68017 L172.93175,405.96924 C174.34093,409.67139 175.84825,413.40478 177.41275,417.06299 L175.57384,417.8501 Z M732.12657,406.39795 L730.25646,405.68895 C731.67446,401.94774 733.0338,398.13427 734.29454,394.35595 L736.19103,394.98876 C734.92247,398.79346 733.55432,402.63135 732.12657,406.39795 Z M166.9962,395.30517 C165.72276,391.50342 164.51085,387.62353 163.3942,383.7749 L165.3151,383.21826 C166.42447,387.04053 167.6281,390.89404 168.89274,394.67041 L166.9962,395.30517 Z M739.78087,383.45264 L737.859,382.89795 C738.96251,379.08154 740.0045,375.18213 740.95665,371.30615 L742.89806,371.78271 C741.94005,375.68506 740.89122,379.61181 739.78087,383.45264 Z M160.26332,372.10791 C159.30238,368.21338 158.40932,364.24951 157.60756,360.32471 L159.56756,359.92431 C160.36346,363.82275 161.25067,367.76123 162.20477,371.62939 L160.26332,372.10791 Z M745.54064,359.99755 L743.5797,359.59911 C744.3707,355.7036 745.09337,351.73192 745.72814,347.7954 L747.70275,348.11376 C747.06407,352.07666 746.33653,356.07471 745.54064,359.99755 Z M155.43126,348.44287 C154.79015,344.49463 154.21983,340.47119 153.73644,336.48387 L155.72179,336.24363 C156.20226,340.20457 156.76866,344.20063 157.40587,348.12254 L155.43126,348.44287 Z M749.38439,336.1499 L747.39806,335.91159 C747.87364,331.95259 748.27501,327.936 748.58946,323.97359 L750.5836,324.13179 C750.26622,328.12109 749.8629,332.16455 749.38439,336.1499 L749.38439,336.1499 Z M152.52403,324.46728 C152.20128,320.47265 151.95519,316.41601 151.79259,312.40967 L153.79064,312.32861 C153.95226,316.3081 154.19689,320.33789 154.5172,324.30615 L152.52403,324.46728 Z M751.30232,312.07617 L749.30432,311.99707 C749.46057,308.01172 749.54065,303.97558 749.54065,300.00049 L749.53965,299.33789 L751.53965,299.33789 L751.54065,299.99609 C751.54065,304.00146 751.46056,308.06396 751.30232,312.07617 Z M153.54012,300.33203 L151.54012,300.33203 L151.54061,299.99609 C151.54061,296.09473 151.61629,292.14355 151.76619,288.25732 L153.76424,288.33447 C153.6158,292.19531 153.54061,296.12012 153.54061,300.00047 L153.54012,300.33203 Z M749.27596,287.34424 C749.11096,283.37305 748.86287,279.34324 748.5367,275.36767 L750.53084,275.20459 C750.85799,279.20703 751.10799,283.26318 751.274,287.26123 L749.27596,287.34424 Z M154.46496,276.35644 L152.47082,276.20019 C152.78527,272.19531 153.18469,268.15137 153.65734,264.17969 L155.64367,264.41601 C155.17394,268.36133 154.77745,272.3789 154.46495,276.35644 L154.46496,276.35644 Z M747.31996,263.43115 C746.83754,259.48681 746.26723,255.49072 745.6227,251.55415 L747.59731,251.23139 C748.24477,255.19428 748.81996,259.21723 749.30431,263.18891 L747.31996,263.43115 Z M157.29996,252.5332 L155.32535,252.2168 C155.95914,248.2568 156.68229,244.25732 157.47574,240.33056 L159.43574,240.72607 C158.64806,244.62695 157.9298,248.59912 157.29991,252.5332 L157.29996,252.5332 Z M743.44696,239.75439 C742.64422,235.84619 741.75262,231.90967 740.79657,228.05273 L742.73797,227.57129 C743.70086,231.4541 744.59832,235.41797 745.40597,239.35205 L743.44696,239.75439 Z M162.0465,229.01562 L160.10362,228.54101 C161.0548,224.64844 162.09972,220.7207 163.20909,216.86621 L165.13097,217.41943 C164.02892,221.24805 162.99132,225.14941 162.0465,229.01562 Z M737.67442,216.46777 C736.56114,212.64795 735.35411,208.7959 734.08458,205.01904 L735.98107,204.38232 C737.25841,208.18457 738.47423,212.0625 739.59435,215.9082 L737.67442,216.46777 Z M168.68273,205.95898 L166.78478,205.32812 C168.0504,201.52002 169.41368,197.67969 170.83702,193.91406 L172.70812,194.62106 C171.29405,198.36181 169.93956,202.17627 168.68273,205.95898 Z M730.03185,193.7251 C728.61095,190.00488 727.09923,186.27392 725.53868,182.63525 L727.37657,181.84717 C728.94786,185.51025 730.47032,189.26611 731.90099,193.01123 L730.03185,193.7251 Z M177.19005,183.45947 L175.34923,182.67627 C176.92101,178.98144 178.59093,175.2666 180.31212,171.63627 L182.11925,172.49271 C180.40932,176.09912 178.75108,179.78906 177.19005,183.45947 L177.19005,183.45947 Z M720.59923,171.73193 C718.88732,168.14693 717.07872,164.54736 715.22323,161.0332 L716.99081,160.09912 C718.85995,163.63721 720.68124,167.26074 722.4039,170.8706 L720.59923,171.73193 Z M187.48839,161.7373 L185.71691,160.80859 C187.58116,157.25537 189.54503,153.68994 191.55333,150.21094 L193.28575,151.21094 C191.29064,154.66655 189.33995,158.20849 187.48839,161.7373 L187.48839,161.7373 Z M709.41661,150.55664 C707.41661,147.11377 705.32286,143.66943 703.192,140.31836 L704.8795,139.24512 C707.02501,142.61865 709.13243,146.08642 711.1461,149.55176 L709.41661,150.55664 Z M199.50206,140.93017 L197.81163,139.86084 C199.95714,136.46875 202.20079,133.07471 204.47963,129.77344 L206.12514,130.90967 C203.86144,134.18896 201.63341,137.56006 199.50206,140.93017 L199.50206,140.93017 Z M696.55821,130.33545 C694.28966,127.0664 691.92442,123.79883 689.52892,120.625 L691.12462,119.41992 C693.53673,122.61523 695.91762,125.9043 698.20079,129.1958 L696.55821,130.33545 Z M213.14464,121.16555 L211.54601,119.96437 C213.95616,116.75637 216.46349,113.55519 218.99816,110.44875 L220.54796,111.7134 C218.02989,114.79883 215.53917,117.979 213.14464,121.16555 Z M682.11388,111.20119 C679.59142,108.12355 676.97032,105.05471 674.32579,102.0801 L675.81993,100.751 C678.48302,103.74562 681.12071,106.835 683.66075,109.93361 L682.11388,111.20119 Z M228.32288,102.56691 L226.82581,101.24172 C229.48109,98.24172 232.23548,95.25246 235.01281,92.35695 L236.45617,93.74172 C233.69737,96.61767 230.96105,99.5874 228.32286,102.56691 L228.32288,102.56691 Z M666.17737,93.27491 C663.4098,90.40333 660.55137,87.55274 657.6803,84.80177 L659.06409,83.35743 C661.95374,86.12696 664.83167,88.99659 667.61683,91.88722 L666.17737,93.27491 Z M244.93372,85.25001 L243.547,83.8086 C246.43275,81.03175 249.41663,78.27393 252.41468,75.61085 L253.7428,77.10597 C250.76432,79.75146 247.8004,82.4917 244.9337,85.25001 L244.93372,85.25001 Z M648.8512,76.67335 C645.86292,74.03126 642.78382,71.417 639.70081,68.90382 L640.96448,67.35352 C644.068,69.8838 647.16761,72.51515 650.17542,75.1753 L648.8512,76.67335 Z M262.86876,69.32275 L261.60118,67.77588 C264.70418,65.23437 267.89757,62.7251 271.09191,60.31688 L272.29601,61.91356 C269.12267,64.30566 265.95079,66.79883 262.86876,69.32275 Z M630.24276,61.50586 C627.05233,59.11133 623.77206,56.75146 620.49569,54.4917 L621.63046,52.84521 C624.92929,55.12012 628.23105,57.4956 631.44394,59.90621 L630.24276,61.50586 Z M282.01181,54.88769 L280.87216,53.24414 C284.16903,50.95947 287.55136,48.71484 290.92538,46.57226 L291.99765,48.26074 C288.6461,50.38867 285.28624,52.61816 282.01183,54.88769 L282.01181,54.88769 Z M610.47132,47.87305 C607.09925,45.74316 603.63932,43.65381 600.18616,41.66305 L601.18616,39.93063 C604.66077,41.93454 608.14416,44.03805 611.53968,46.1821 L610.47132,47.87305 Z M302.2389,42.04248 L301.23548,40.31201 C304.69348,38.30664 308.24329,36.3418 311.78528,34.47314 L312.71888,36.2417 C309.19982,38.09814 305.67394,40.0498 302.23888,42.04248 L302.2389,42.04248 Z M589.65784,35.87109 C586.12562,34.02051 582.50648,32.21631 578.90003,30.50879 L579.7555,28.70117 C583.38636,30.41992 587.03089,32.23633 590.58558,34.09961 L589.65784,35.87109 Z M323.42005,30.87109 L322.55921,29.06543 C326.16566,27.34619 329.8595,25.67529 333.5387,24.09912 L334.32581,25.9375 C330.6715,27.50293 327.00206,29.1626 323.42003,30.87109 L323.42005,30.87109 Z M567.93032,25.58545 C564.25454,24.02445 560.49868,22.51904 556.76626,21.10986 L557.47326,19.23877 C561.2301,20.65723 565.01233,22.17334 568.71154,23.74463 L567.93032,25.58545 Z M345.41861,21.45019 L344.7062,19.58105 C348.44839,18.1543 352.27456,16.78418 356.07827,15.5083 L356.71402,17.40478 C352.93614,18.67187 349.13585,20.0332 345.41857,21.45019 L345.41861,21.45019 Z M545.42544,17.09033 C541.64614,15.83691 537.7897,14.64404 533.96255,13.54492 L534.51529,11.62305 C538.36782,12.72949 542.24966,13.93017 546.05435,15.19189 L545.42544,17.09033 Z M368.16564,13.81982 L367.60704,11.8999 C371.45323,10.78076 375.37804,9.7251 379.27204,8.76172 L379.75251,10.70312 C375.88439,11.66015 371.98595,12.70898 368.16564,13.81982 Z M522.36532,10.46777 C518.50399,9.52588 514.56308,8.64941 510.65292,7.86277 L511.04745,5.90183 C514.98398,6.69383 518.95126,7.57664 522.83896,8.52439 L522.36532,10.46777 Z M391.45519,8.06006 L391.05382,6.10106 C394.97472,5.29833 398.97182,4.56395 402.93419,3.91796 L403.25646,5.89159 C399.31993,6.53369 395.34972,7.26318 391.45519,8.06006 Z M498.84532,5.73389 C494.91222,5.10689 490.91368,4.55127 486.96056,4.08349 L487.19591,2.09717 C491.1754,2.56836 495.20079,3.12744 499.15978,3.75928 L498.84532,5.73389 Z M415.13439,4.20117 L414.8922,2.21582 C418.87071,1.73144 422.91368,1.32082 426.9088,0.99658 L427.07091,2.98974 C423.10216,3.31255 419.08605,3.71973 415.13439,4.20117 Z M475.02013,2.91162 C471.05528,2.60254 467.02501,2.36914 463.04161,2.21826 L463.11778,0.21926 C467.12755,0.3716 471.18419,0.60646 475.1754,0.9175 L475.02013,2.91162 Z M439.04796,2.25683 L438.96596,0.25883 C442.96496,0.09383 447.02796,0.00683 451.04213,4e-05 L451.04506,2.00004 C447.05773,2.00683 443.0211,2.09326 439.04796,2.25683 L439.04796,2.25683 Z" id="Shape" fill="#3F3D56"></path>
            <g id="Group" transform="translate(0.000000, 173.000000)">
                <g id="Rectangle">
                    <use fill="black" fill-opacity="1" filter="url(#filter-2)" xlink:href="#path-1"></use>
                    <use fill="#1F93FF" xlink:href="#path-1"></use>
                </g>
                <g id="Rectangle">
                    <use fill="black" fill-opacity="1" filter="url(#filter-4)" xlink:href="#path-3"></use>
                    <use fill="#E6E6E6" xlink:href="#path-3"></use>
                </g>
                <circle id="Oval" fill="#FFFFFF" cx="45.29727" cy="41.98283" r="25.41066"></circle>
                <rect id="Rectangle" fill="#FFFFFF" x="106.0619" y="32.03953" width="250.79222" height="5.52406"></rect>
                <rect id="Rectangle" fill="#FFFFFF" x="106.0619" y="46.40208" width="250.79222" height="5.52406"></rect>
                <circle id="Oval" fill="#FFFFFF" cx="45.29727" cy="142.52068" r="25.41066"></circle>
                <rect id="Rectangle" fill="#FFFFFF" x="106.0619" y="132.57738" width="250.79222" height="5.52406"></rect>
                <rect id="Rectangle" fill="#FFFFFF" x="106.0619" y="146.93993" width="250.79222" height="5.52406"></rect>
                <rect id="Rectangle" fill="#FFFFFF" x="106.0619" y="132.57738" width="250.79222" height="5.52406"></rect>
                <rect id="Rectangle" fill="#FFFFFF" x="106.0619" y="146.93993" width="250.79222" height="5.52406"></rect>
                <g id="Rectangle">
                    <use fill="black" fill-opacity="1" filter="url(#filter-6)" xlink:href="#path-5"></use>
                    <use fill="#E6E6E6" xlink:href="#path-5"></use>
                </g>
                <circle id="Oval" fill="#FFFFFF" cx="45.29727" cy="240.19902" r="25.41066"></circle>
                <rect id="Rectangle" fill="#FFFFFF" x="106.0619" y="230.25571" width="250.79222" height="5.52406"></rect>
                <rect id="Rectangle" fill="#FFFFFF" x="106.0619" y="244.61826" width="250.79222" height="5.52406"></rect>
                <rect id="Rectangle" fill="#FFFFFF" x="106.0619" y="230.25571" width="250.79222" height="5.52406"></rect>
                <rect id="Rectangle" fill="#FFFFFF" x="106.0619" y="244.61826" width="250.79222" height="5.52406"></rect>
                <polygon id="Path" fill="#1F93FF" points="42.98186 51.58943 33.88086 39.45543 36.03686 37.83843 43.45086 47.72343 72.64086 23.84143 74.34686 25.92743"></polygon>
            </g>
        </g>
    </g>
</svg>