<?xml version="1.0" encoding="UTF-8"?>
<svg width="1392px" height="730px" viewBox="0 0 1392 730" version="1.1" xmlns="http://www.w3.org/2000/svg" xmlns:xlink="http://www.w3.org/1999/xlink">
    <!-- Generator: Sketch 58 (84663) - https://sketch.com -->
    <title>productivity-illustration</title>
    <desc>Created with Sketch.</desc>
    <defs>
        <rect id="path-1" x="0" y="0" width="822" height="536" rx="19"></rect>
        <filter x="-2.7%" y="-4.2%" width="105.5%" height="108.4%" filterUnits="objectBoundingBox" id="filter-2">
            <feMorphology radius="0.5" operator="dilate" in="SourceAlpha" result="shadowSpreadOuter1"></feMorphology>
            <feOffset dx="0" dy="0" in="shadowSpreadOuter1" result="shadowOffsetOuter1"></feOffset>
            <feGaussianBlur stdDeviation="7" in="shadowOffsetOuter1" result="shadowBlurOuter1"></feGaussianBlur>
            <feColorMatrix values="0 0 0 0 0.528589221   0 0 0 0 0.523452397   0 0 0 0 0.523452397  0 0 0 0.5 0" type="matrix" in="shadowBlurOuter1"></feColorMatrix>
        </filter>
    </defs>
    <g id="Page-3" stroke="none" stroke-width="1" fill="none" fill-rule="evenodd">
        <g id="productivity-illustration" transform="translate(15.000000, 15.000000)">
            <g id="Group-3">
                <g id="Rectangle" fill-rule="nonzero">
                    <use fill="black" fill-opacity="1" filter="url(#filter-2)" xlink:href="#path-1"></use>
                    <use fill="#FFFFFF" xlink:href="#path-1"></use>
                </g>
                <g id="Group" transform="translate(277.000000, 119.000000)" fill-rule="nonzero">
                    <path d="M223.0003,222.98802 C260.358332,185.630011 271.533921,129.446573 251.315907,80.6359675 C231.097893,31.8253616 183.467869,2e-05 130.63565,2e-05 L130.63565,130.62337 L223.0003,222.98802 Z" id="Path" fill="#3679B1"></path>
                    <path d="M130.6356,0 C70.9097959,0.00716878271 18.7941876,40.5184642 4.0535709,98.3966638 C-10.6870458,156.274863 15.7013956,216.779837 68.1476604,245.35537 L130.6356,130.62337 L130.6356,0 Z" id="Path" fill="#E5EFF8"></path>
                    <rect id="Rectangle" fill="#3F3D56" x="282.10313" y="247.35064" width="102.83117" height="4.16883"></rect>
                    <rect id="Rectangle" fill="#3F3D56" x="282.10313" y="259.85714" width="102.83117" height="4.16883"></rect>
                    <rect id="Rectangle" fill="#3F3D56" x="282.10313" y="272.36363" width="102.83117" height="4.16883"></rect>
                    <path d="M229.78694,256.03121 L137.42224,163.66656 L74.9343004,278.39856 C125.806199,306.07657 188.826779,296.9737 229.78694,256.03121 Z" id="Path" fill="#47A7F6"></path>
                </g>
                <g id="Group-2" transform="translate(716.000000, 30.000000)">
                    <g id="Head/Front/Airy" transform="translate(219.000000, 80.500000) scale(-1, 1) translate(-219.000000, -80.500000) translate(114.000000, 0.000000)">
                        <g id="Head" stroke-width="1" transform="translate(83.382353, 47.990385)" fill="#B28B67">
                            <path d="M58.8978065,14.1400308 C67.8456761,30.8609981 66.7824365,73.2751185 55.2181124,76.2636218 C50.6062231,77.4554465 40.7814678,74.5359063 30.7822159,68.4933814 L37.0588235,113.009615 L0,113.009615 L12.7569503,53.3922247 C5.64232961,45.0192717 0.827119806,34.758257 1.63178699,23.2605584 C3.95036284,-9.86902224 49.949937,-2.5809366 58.8978065,14.1400308 Z"></path>
                        </g>
                        <path d="M121.15757,42.8589071 C116.273324,42.0558903 103.122277,41.5037939 100.696989,41.5041504 C99.147116,41.5041504 97.4675253,41.8591458 96.5495805,40.432392 C95.7978582,39.2640435 96.0732417,37.2880447 95.8488945,35.9322187 C95.5883967,34.3571937 95.2183835,32.8024847 94.8441172,31.2516964 C93.7790887,26.8388463 92.1686096,22.6405617 89.9152148,18.6989004 C85.6869983,11.3038747 79.4928207,5.51131839 71.672924,2.14064371 C63.0375097,-1.58110579 53.2658286,-2.43330873 43.9772203,-1.67840876 C34.0371903,-0.870758466 25.0392054,2.41900862 15.6541953,5.5148826 C6.71079093,8.46498034 -2.6564983,9.6262004 -12.0103196,8.18554617 C-21.4346703,6.73419931 -28.5556531,1.61314043 -36.5049126,-3.2473746 C-44.642723,-8.22337007 -53.9426727,-11.4778515 -63.5630169,-10.7297235 C-72.5432808,-10.0311381 -80.8200234,-6.31366563 -88.2458063,-1.34764995 C-95.1934783,3.29865598 -100.926203,8.88876507 -104.162755,16.7564052 C-107.644566,25.2196251 -107.641376,34.5093856 -101.91574,41.9888831 C-93.616669,52.8305012 -78.2097288,55.6341099 -65.391818,55.3553885 C-57.9777309,55.1946426 -50.6961963,53.8377473 -43.6964248,51.369531 C-34.3613877,48.0776254 -26.2944611,42.4982089 -17.5612271,37.9713041 C-13.4627279,35.8470341 -9.22635984,34.1023526 -4.78584653,32.8456117 C-0.476822602,31.6255822 3.76734269,31.066001 7.66878498,33.6757165 C11.7959921,36.4365546 15.4943524,39.1485631 20.2159198,40.8768492 C24.7453922,42.5349203 29.5431597,43.4623281 34.3689263,43.4249039 C43.7581895,43.3521939 53.0138368,40.4192044 62.1330328,38.4546111 C69.5694484,36.8528545 77.5261507,35.2564443 85.1075236,36.7961836 C88.2710659,37.4388109 92.8919784,38.7654103 94.0346246,42.061593 C74.8035054,45.5559458 67.2505038,69.4005198 72.6720484,86.9047182 C75.5981301,96.3523732 93.1872093,107.396582 100.026075,102.429807 C104.358693,99.2832124 101.728348,95.1523033 100.026075,92.4253252 C96.7661304,87.2030427 95.6507744,80.4948405 101.682983,76.8589885 C106.886205,73.7231953 112.357035,81.1698719 112.460526,81.1616742 C113.890606,81.0486887 126.247739,74.0422678 134.761578,63.8181228 C143.160513,64.3172794 144.434753,58.765038 142.429252,54.224348 C140.423751,49.6836579 127.906059,43.9691589 121.15757,42.8589071 Z" id="hair" fill="#191847"></path>
                    </g>
                    <g id="Bottom/Standing/Shorts" transform="translate(231.000000, 475.500000) scale(-1, 1) translate(-231.000000, -475.500000) translate(0.000000, 291.000000)">
                        <polygon id="Leg" fill="#997659" points="197.12 9.9475983e-14 255.07149 189.941084 283.144637 351.473741 305.155923 351.473741 275.4921 9.9475983e-14"></polygon>
                        <path d="M176.3881,0 C180.324306,104.287864 175.691924,158.081433 174.810954,167.556439 C173.929984,177.031445 161.866622,238.46789 133.308079,354.654499 L156.762748,346.57854 C201.896864,240.018225 217.276961,184.636947 222.453503,170.644305 C227.630044,156.651662 241.378681,99.7702275 263.699413,0 L176.3881,0 Z" id="Leg" fill="#B28B67"></path>
                        <g id="Accessories/Shoe/Flat-Sneaker" transform="translate(129.360000, 307.242678)" fill="#E4E4E4">
                            <path d="M4.55440087,38.2470367 C2.54545603,43.4440475 1.54098361,47.2829652 1.54098361,49.7637898 C1.54098361,52.5588834 2.00391697,56.6376201 2.9297837,62 C6.15342672,62 35.1248494,62 89.8440517,62 C92.1026454,54.4894862 90.7988541,50.4348015 85.9326778,49.8359459 C81.0665015,49.2370902 77.0240862,48.6963715 73.8054319,48.2137898 L32.9032626,29.8727082 C32.3993235,29.6467351 31.8076128,29.8720711 31.5816397,30.3760102 C31.5771976,30.3859164 31.5729172,30.3958943 31.5688,30.40594 L28.7597054,37.2599773 L28.7597054,37.2599773 C24.2548989,39.3741108 20.594276,40.4311776 17.7778365,40.4311776 C15.3019165,40.4311776 11.8052996,39.3429115 7.28798589,37.1663794 L7.28797851,37.1663947 C6.29289971,36.6869458 5.09755885,37.1049465 4.61810997,38.1000253 C4.59491844,38.1481584 4.57366503,38.1972016 4.55440087,38.2470367 Z" id="shoe"></path>
                        </g>
                        <g id="Accessories/Shoe/Flat-Sneaker" transform="translate(274.120000, 307.242678)" fill="#E4E4E4">
                            <path d="M4.55440087,38.2470367 C2.54545603,43.4440475 1.54098361,47.2829652 1.54098361,49.7637898 C1.54098361,52.5588834 2.00391697,56.6376201 2.9297837,62 C6.15342672,62 35.1248494,62 89.8440517,62 C92.1026454,54.4894862 90.7988541,50.4348015 85.9326778,49.8359459 C81.0665015,49.2370902 77.0240862,48.6963715 73.8054319,48.2137898 L32.9032626,29.8727082 C32.3993235,29.6467351 31.8076128,29.8720711 31.5816397,30.3760102 C31.5771976,30.3859164 31.5729172,30.3958943 31.5688,30.40594 L28.7597054,37.2599773 L28.7597054,37.2599773 C24.2548989,39.3741108 20.594276,40.4311776 17.7778365,40.4311776 C15.3019165,40.4311776 11.8052996,39.3429115 7.28798589,37.1663794 L7.28797851,37.1663947 C6.29289971,36.6869458 5.09755885,37.1049465 4.61810997,38.1000253 C4.59491844,38.1481584 4.57366503,38.1972016 4.55440087,38.2470367 Z" id="shoe"></path>
                        </g>
                        <polygon id="Bottom" fill="#191847" points="189.42 0 214.06 96.7729829 289.32029 96.7729829 278.098674 0"></polygon>
                        <path d="M175.56,-3.55271368e-15 C167.452576,24.3641067 165.912576,56.6217677 170.94,96.7729829 L247.74029,96.7729829 L268.858674,-3.55271368e-15 L175.56,-3.55271368e-15 Z" id="Bottom" fill="#191847"></path>
                    </g>
                    <g id="Body/Pointing-Forward" transform="translate(228.943620, 271.683992) scale(-1, 1) rotate(8.000000) translate(-228.943620, -271.683992) translate(31.531157, 127.609148)">
                        <path d="M368.085041,71.4729487 C374.770406,70.0991699 391.087473,57.9860875 393.898985,60.4455009 C398.058435,64.0840446 394.349614,75.2564822 389.979741,80.8141716 C381.812453,91.2014862 375.050292,94.7536344 358.336559,99.4051938 C349.597757,101.837269 340.149566,106.712155 329.991986,114.029851 L328.652344,90.4656355 L352.177252,77.5662646 C355.47813,65.0293384 359.423927,58.7215869 364.014643,58.6430102 C367.541268,57.0051504 361.399675,72.8467274 368.085041,71.4729487 Z M327.595104,17.7751552 C323.275532,25.4277494 319.076795,33.6710371 321.277447,36.0286357 C323.478099,38.3862344 328.965622,35.092773 331.590966,39.0099432 C333.341196,41.6213901 323.966197,45.7467408 303.465969,51.3859956 L264.55093,86.9508072 L244.773537,65.7629252 L298.329646,36.4848593 C307.235699,25.9285048 316.010642,17.7300166 324.654474,11.8893945 C327.295751,10.7887497 331.914676,10.1225609 327.595104,17.7751552 Z" id="Skin" fill="#997659"></path>
                        <path d="M220.423493,53.508251 C238.982281,56.2474048 264.30787,56.2546627 293.315822,43.7272203 L300.018906,68.4122582 C278.981758,83.5450104 251.069034,94.2950849 228.811495,90.1274261 C211.271327,86.8430813 205.635918,64.1454686 220.423493,53.508251 Z" id="Sleeve" fill="#2026A2" transform="translate(255.976810, 67.379491) rotate(-9.000000) translate(-255.976810, -67.379491) "></path>
                        <path d="M219.940551,-1.42108547e-13 C222.302718,30.2918541 234.191992,63.6760469 243.949423,96.6572519 C263.862343,101.616834 297.258895,95.7708598 344.137475,79.1205626 C355.764887,103.130981 361.139948,120.248568 360.262658,130.473323 C320.044444,151.442798 285.574639,160.790649 257.176994,161.405786 L257.186589,161.397503 C258.090044,178.21817 256.039666,194.223394 249.149232,208.847691 C234.985933,238.907959 152.051945,211.068799 124.166996,216.548226 C106.704622,159.94214 140.468651,136.937656 140.495818,100.717783 C140.525569,61.0531618 172.433562,-1.42108547e-13 177.128185,-1.42108547e-13 L177.128185,-1.42108547e-13 Z" id="Clothes" fill="#1F28CF"></path>
                    </g>
                </g>
            </g>
            <path d="M1377,714.13829 C1339.28136,709.354883 1303.00715,705.246883 1268.17737,701.81429 L1281.94639,681.83065 C1277.30344,680.62354 1256.90486,692.06758 1256.90486,692.06758 L1274.97448,634.0599 C1251.62342,636.1679 1239.75088,695.39725 1239.75088,695.39725 L1213.66168,675.37219 L1226.2923,697.8856 C1119.69256,688.48842 1027.62954,685.0041 950.193718,684.87851 L961.978638,667.77461 C957.33569,666.5675 936.937113,678.01153 936.937113,678.01153 L955.006728,620.00385 C931.655669,622.11185 919.783127,681.34121 919.783127,681.34121 L893.693931,661.31614 L907.071757,685.16154 C854.016345,685.817403 801.040857,688.511025 748.354305,693.23178 C760.274125,666.58701 800.76684,641.24574 800.76684,641.24574 C769.842793,648.13043 753.621442,659.66721 745.145316,670.42283 C744.387869,615.44545 756.600137,560.799521 781.220075,509 C781.220075,509 717.301063,613.11925 725.45708,683.00846 L726.432597,695.41877 C672.243724,701.22692 645,707.26977 645,707.26977 L1377,714.13829 Z" id="Path" fill="#3F3D56" fill-rule="nonzero"></path>
        </g>
    </g>
</svg>